<svg xmlns="http://www.w3.org/2000/svg" width="518.194" height="92.759" viewBox="0 0 518.194 92.759"><path d="M399.4,119.784V54.809h7.735v6.37h.183a11.579,11.579,0,0,1,6.006-5.687,22.409,22.409,0,0,1,9.009-1.775,21.221,21.221,0,0,1,9.509,2,19.342,19.342,0,0,1,6.734,5.414A23.911,23.911,0,0,1,442.626,69a32.162,32.162,0,0,1,1.364,9.464,33.172,33.172,0,0,1-1.319,9.464,22.275,22.275,0,0,1-4,7.781,18.877,18.877,0,0,1-6.734,5.233,21.853,21.853,0,0,1-9.418,1.911,23.214,23.214,0,0,1-3.867-.364,21.438,21.438,0,0,1-4.232-1.183,16.547,16.547,0,0,1-3.958-2.229,12.456,12.456,0,0,1-3.139-3.5h-.183v24.206Zm15.2-57.695a13.311,13.311,0,0,0-4.46,4.05,16.9,16.9,0,0,0-2.5,5.687,27.541,27.541,0,0,0,.045,13.15,16.547,16.547,0,0,0,2.594,5.687,13.238,13.238,0,0,0,4.6,3.958,14.346,14.346,0,0,0,6.825,1.5,13.227,13.227,0,0,0,6.689-1.547,12.449,12.449,0,0,0,4.323-4.1,17.846,17.846,0,0,0,2.366-5.824,30.965,30.965,0,0,0,.727-6.735,24.072,24.072,0,0,0-.864-6.415,17.338,17.338,0,0,0-2.639-5.6,12.942,12.942,0,0,0-4.564-3.9,13.822,13.822,0,0,0-6.506-1.456,13.28,13.28,0,0,0-6.643,1.545Zm-69.16,57.695V54.809h7.736v6.37h.182a11.579,11.579,0,0,1,6.006-5.687,22.409,22.409,0,0,1,9.009-1.775,21.216,21.216,0,0,1,9.509,2,19.342,19.342,0,0,1,6.734,5.414A23.911,23.911,0,0,1,388.666,69a32.162,32.162,0,0,1,1.364,9.464,33.172,33.172,0,0,1-1.319,9.464,22.274,22.274,0,0,1-4,7.781,18.877,18.877,0,0,1-6.734,5.233,21.853,21.853,0,0,1-9.418,1.911,23.225,23.225,0,0,1-3.867-.364,21.437,21.437,0,0,1-4.232-1.183A16.546,16.546,0,0,1,356.5,99.08a12.455,12.455,0,0,1-3.139-3.5h-.182v24.206Zm15.2-57.695a13.311,13.311,0,0,0-4.46,4.05,16.921,16.921,0,0,0-2.5,5.687,27.541,27.541,0,0,0,.045,13.15,16.547,16.547,0,0,0,2.594,5.687,13.237,13.237,0,0,0,4.6,3.958,14.349,14.349,0,0,0,6.825,1.5,13.227,13.227,0,0,0,6.689-1.547,12.45,12.45,0,0,0,4.323-4.1,17.846,17.846,0,0,0,2.366-5.824,30.969,30.969,0,0,0,.728-6.735,24.072,24.072,0,0,0-.865-6.415,17.319,17.319,0,0,0-2.639-5.6,12.942,12.942,0,0,0-4.567-3.9,13.822,13.822,0,0,0-6.506-1.456,13.28,13.28,0,0,0-6.643,1.545ZM475.034,109A11.3,11.3,0,0,1,463.9,97.658V38.22a11.158,11.158,0,0,1,17.008-9.536l48.261,29.855a11.22,11.22,0,0,1-.041,19.1L494.24,99.072a3.194,3.194,0,0,1-3.327-5.454L525.8,72.177a4.812,4.812,0,0,0,.022-8.194L477.565,34.129a4.786,4.786,0,0,0-7.294,4.091V97.658a4.96,4.96,0,0,0,4.8,4.948,4.873,4.873,0,0,0,2.482-.811,3.194,3.194,0,0,1,3.318,5.459A11.163,11.163,0,0,1,475.084,109Zm-252.77-7.964a19.285,19.285,0,0,1-6.962-5.1,21.641,21.641,0,0,1-4.231-7.826,37.709,37.709,0,0,1-1.593-9.919,28.318,28.318,0,0,1,1.638-9.828,23.484,23.484,0,0,1,4.6-7.735,20.859,20.859,0,0,1,7.007-5.1,21.391,21.391,0,0,1,8.872-1.82A19.293,19.293,0,0,1,242.014,56.3a20.6,20.6,0,0,1,6.643,6.6,26.082,26.082,0,0,1,3.459,8.736,37.481,37.481,0,0,1,.773,9.009h-35.22a18.669,18.669,0,0,0,.728,5.869,13.3,13.3,0,0,0,2.639,4.914,13.011,13.011,0,0,0,4.641,3.413,16.016,16.016,0,0,0,6.643,1.274,13.387,13.387,0,0,0,8.053-2.275,11,11,0,0,0,4.141-6.917h7.644q-1.547,7.918-6.825,11.921t-13.286,4a24.169,24.169,0,0,1-9.783-1.808Zm3.458-39.449a12.507,12.507,0,0,0-4.14,2.866,13.693,13.693,0,0,0-2.73,4.232,16.1,16.1,0,0,0-1.184,5.141H244.7a15.833,15.833,0,0,0-1.229-5.187,13.267,13.267,0,0,0-2.821-4.232,13.4,13.4,0,0,0-4.186-2.821,13.237,13.237,0,0,0-5.324-1.047,13.476,13.476,0,0,0-5.418,1.05Zm-121.166,39.4A20.1,20.1,0,0,1,97.367,95.8,22.016,22.016,0,0,1,93,88.025a30.894,30.894,0,0,1-1.456-9.646A31.318,31.318,0,0,1,93,68.687a21.955,21.955,0,0,1,4.368-7.826,20.587,20.587,0,0,1,7.189-5.233,26.349,26.349,0,0,1,19.7,0,20.693,20.693,0,0,1,7.143,5.233,21.955,21.955,0,0,1,4.368,7.826,31.318,31.318,0,0,1,1.456,9.691,30.894,30.894,0,0,1-1.456,9.646A22.016,22.016,0,0,1,131.4,95.8a20.2,20.2,0,0,1-7.143,5.187,26.939,26.939,0,0,1-19.7,0ZM108.7,61.726a13.367,13.367,0,0,0-4.687,3.458,16.4,16.4,0,0,0-3.139,5.6,25.947,25.947,0,0,0,0,15.2,15.911,15.911,0,0,0,3.139,5.551,13.623,13.623,0,0,0,4.687,3.4,14.256,14.256,0,0,0,11.374,0,13.623,13.623,0,0,0,4.687-3.412,15.911,15.911,0,0,0,3.139-5.551,25.947,25.947,0,0,0,0-15.2,16.4,16.4,0,0,0-3.139-5.6,13.367,13.367,0,0,0-4.687-3.458,14.256,14.256,0,0,0-11.374,0Zm221.812,40.131-7.1-19.565H295.929l-7.28,19.565h-8.827l25.3-64.975h9.555l25.389,64.975Zm-31.85-26.845h22.022l-10.829-30.3h-.183ZM192.28,101.857V54.809h7.736v47.048Zm-33.033,0L141.774,54.809h8.645l13.2,39.221h.182l12.831-39.221h8.1l-17.2,47.048Zm-86.45,0V47.8h-.182L52.322,101.857H44.951L24.657,47.8h-.182v54.054h-8.19V36.882H28.116l20.475,54.6,20.566-54.6h11.83v64.975ZM192.28,46.346V36.882h7.736v9.464Z" transform="translate(-16.285 -27.027)" fill="#fff"/></svg>